<mxfile host="861a0fac-f81b-404d-a7e4-ab20cbc7e402" modified="2020-11-11T15:19:49.351Z" agent="5.0 (Macintosh; Intel Mac OS X 10_15_7) AppleWebKit/537.36 (KHTML, like Gecko) Code/1.48.0 Chrome/78.0.3904.130 Electron/7.3.2 Safari/537.36" etag="sWpqsyTRToZWhSyUacYA" version="13.1.3" pages="2">
    <diagram id="6hGFLwfOUW9BJ-s0fimq" name="Mathjax">
        <mxGraphModel dx="898" dy="566" grid="1" gridSize="10" guides="1" tooltips="1" connect="1" arrows="1" fold="1" page="1" pageScale="1" pageWidth="827" pageHeight="1169" math="1" shadow="0">
            <root>
                <mxCell id="0"/>
                <mxCell id="1" parent="0"/>
                <mxCell id="3" value="&lt;table cellpadding=&quot;4&quot; cellspacing=&quot;0&quot; border=&quot;1&quot; style=&quot;font-size: 1em ; width: 100% ; height: 100%&quot;&gt;&lt;tbody&gt;&lt;tr&gt;&lt;th style=&quot;text-align: center&quot;&gt;&lt;span style=&quot;font-weight: normal&quot;&gt;syntax&lt;/span&gt;&lt;/th&gt;&lt;th style=&quot;text-align: center&quot;&gt;&lt;span style=&quot;font-weight: normal&quot;&gt;symbols&lt;/span&gt;&lt;/th&gt;&lt;/tr&gt;&lt;tr&gt;&lt;td&gt;&lt;h3&gt;text&lt;/h3&gt;&lt;ol&gt;&lt;li&gt;&lt;font face=&quot;Courier New&quot;&gt;\text&lt;/font&gt;&lt;/li&gt;&lt;li&gt;&lt;font face=&quot;Courier New&quot;&gt;\,, \;, \quad, \qquad for space widered&lt;/font&gt;&lt;/li&gt;&lt;li&gt;&lt;font face=&quot;Courier New&quot;&gt;{} group elements&lt;/font&gt;&lt;/li&gt;&lt;li&gt;&lt;font face=&quot;Courier New&quot;&gt;_ subscript&lt;/font&gt;&lt;/li&gt;&lt;li&gt;&lt;font face=&quot;Courier New&quot;&gt;^ superscript&lt;/font&gt;&lt;/li&gt;&lt;li&gt;&lt;font face=&quot;Courier New&quot;&gt;l, \ell&lt;/font&gt;&lt;/li&gt;&lt;li&gt;&lt;font face=&quot;Courier New&quot;&gt;\ for escape, \backslash for \&lt;/font&gt;&lt;/li&gt;&lt;li&gt;&lt;font face=&quot;Courier New&quot;&gt;\\ for new line, \\[2ex] for larger vertical space&lt;/font&gt;&lt;/li&gt;&lt;li&gt;&lt;font face=&quot;Courier New&quot;&gt;\mathrm{abcdABCD} - &lt;/font&gt;roman&lt;/li&gt;&lt;li&gt;&lt;font face=&quot;Courier New&quot;&gt;\mathbf{u},\mathit{u} u - &lt;/font&gt;boldface, italic&lt;/li&gt;&lt;li&gt;&lt;font face=&quot;Courier New&quot;&gt;\mathcal{A,B}, \mathbb{AB} -&lt;/font&gt; blackboard bold&lt;/li&gt;&lt;li&gt;&lt;span style=&quot;font-family: &amp;#34;courier new&amp;#34; ; font-size: 1em&quot;&gt;\LaTeX&lt;/span&gt;&lt;br&gt;&lt;/li&gt;&lt;/ol&gt;&lt;/td&gt;&lt;td&gt;&lt;br&gt;&lt;ol&gt;&lt;li&gt;\(\text{hello, world,&amp;nbsp; hello,,,,&amp;nbsp; &amp;nbsp; &amp;nbsp;world}\)&lt;/li&gt;&lt;li&gt;\(a\, a\; a\quad a \qquad a\)&lt;/li&gt;&lt;li&gt;-&lt;/li&gt;&lt;li&gt;\(a_1\)&lt;/li&gt;&lt;li&gt;\(a^3\)&lt;/li&gt;&lt;li&gt;\(l\), \(\ell\)&lt;/li&gt;&lt;li&gt;\(\backslash\)&lt;/li&gt;&lt;li&gt;-&lt;/li&gt;&lt;li&gt;\(\mathrm{abcdABCD}, abcdABCD\)&lt;/li&gt;&lt;li&gt;\(\mathbf{abcdABCD}, \mathit{abcdABCD}, u\)&lt;/li&gt;&lt;li&gt;\(\mathcal{abcdrpqzABCDRPQZ}, \mathbb{abcdrpqzABCDRPQZ}\)&lt;/li&gt;&lt;li&gt;&lt;span style=&quot;font-size: 1em&quot;&gt;\(\LaTeX\)&lt;/span&gt;&lt;br&gt;&lt;/li&gt;&lt;/ol&gt;&lt;/td&gt;&lt;/tr&gt;&lt;tr&gt;&lt;td&gt;&lt;h3&gt;brackets&lt;/h3&gt;&lt;ol&gt;&lt;li&gt;&lt;font face=&quot;Courier New&quot;&gt;(),&amp;nbsp; \left( \right), \big(bigg, Big, Bigg) \left&lt;/font&gt;&lt;/li&gt;&lt;li&gt;&lt;font face=&quot;Courier New&quot;&gt;[], \left[ \right]&lt;/font&gt;&lt;/li&gt;&lt;li&gt;&lt;font face=&quot;Courier New&quot;&gt;\{, \}&lt;/font&gt;&lt;/li&gt;&lt;li&gt;&lt;font face=&quot;Courier New&quot;&gt;\langle, \rangle&lt;/font&gt;&lt;/li&gt;&lt;li&gt;&lt;font face=&quot;Courier New&quot;&gt;\lceil x \rceil&lt;/font&gt;&lt;/li&gt;&lt;li&gt;&lt;font face=&quot;Courier New&quot;&gt;\lfloor x \rfloor&lt;/font&gt;&lt;/li&gt;&lt;li&gt;&lt;font face=&quot;Courier New&quot;&gt;\lvert, \rvert&lt;/font&gt;&lt;/li&gt;&lt;li&gt;&lt;font face=&quot;Courier New&quot;&gt;\lVert, \rVert&lt;/font&gt;&lt;/li&gt;&lt;/ol&gt;&lt;/td&gt;&lt;td&gt;&lt;br&gt;&lt;ol&gt;&lt;li&gt;\(()\), \(\left(\right)\)&lt;/li&gt;&lt;li&gt;\([]\), \(\left[ \right]\)&lt;/li&gt;&lt;li&gt;\(\{\), \(\}\)&lt;/li&gt;&lt;li&gt;\(\langle\), \(\rangle\)&lt;/li&gt;&lt;li&gt;\(\lceil x \rceil\)&lt;/li&gt;&lt;li&gt;\(\lfloor x \rfloor\)&lt;/li&gt;&lt;li&gt;\(\lvert x \rvert\)&lt;/li&gt;&lt;li&gt;\(\lVert x \rVert\)&lt;/li&gt;&lt;/ol&gt;&lt;/td&gt;&lt;/tr&gt;&lt;tr&gt;&lt;td&gt;&lt;h3&gt;relations&lt;/h3&gt;&lt;br&gt;&lt;font face=&quot;Courier New&quot;&gt;\lt, \gt, \le, \ge, \neq, =&lt;br&gt;&lt;/font&gt;&lt;br&gt;&lt;br&gt;&lt;/td&gt;&lt;td&gt;\(\lt\), \(\gt\), \(\le\), \(\ge\), \(\neq\), \(=\)&lt;/td&gt;&lt;/tr&gt;&lt;tr&gt;&lt;td&gt;&lt;h3&gt;arithmetics&lt;/h3&gt;&lt;ol&gt;&lt;li&gt;&lt;font face=&quot;Courier New&quot;&gt;+, -, \times, \div&lt;/font&gt;&lt;/li&gt;&lt;li&gt;&lt;font face=&quot;Courier New&quot;&gt;\pm, \mp, \cdot&amp;nbsp;- &lt;/font&gt;centered dot&lt;/li&gt;&lt;li&gt;&lt;font face=&quot;Courier New&quot;&gt;\frac, \over; \cfrac - &lt;/font&gt;continual frac&lt;/li&gt;&lt;/ol&gt;&lt;/td&gt;&lt;td&gt;&lt;div&gt;&lt;br&gt;&lt;/div&gt;&lt;ol&gt;&lt;li&gt;\(+\), \(-\), \(\times\), \(\div\)&lt;/li&gt;&lt;li&gt;\(\pm\), \(\mp\), \(\cdot\)&lt;/li&gt;&lt;li&gt;\(\frac ab\), \(a \over b\)&lt;/li&gt;&lt;/ol&gt;&lt;/td&gt;&lt;/tr&gt;&lt;tr&gt;&lt;td&gt;&lt;h3&gt;sets&lt;/h3&gt;&lt;ol&gt;&lt;li&gt;&lt;font face=&quot;Courier New&quot;&gt;\cup&lt;/font&gt;&lt;/li&gt;&lt;li&gt;&lt;font face=&quot;Courier New&quot;&gt;\cap&lt;/font&gt;&lt;/li&gt;&lt;li&gt;&lt;font face=&quot;Courier New&quot;&gt;\setminus&lt;/font&gt;&lt;/li&gt;&lt;li&gt;&lt;font face=&quot;Courier New&quot;&gt;\subset&lt;/font&gt;&lt;/li&gt;&lt;li&gt;&lt;font face=&quot;Courier New&quot;&gt;\subseteq&lt;/font&gt;&lt;/li&gt;&lt;li&gt;&lt;font face=&quot;Courier New&quot;&gt;\subsetneq&lt;/font&gt;&lt;/li&gt;&lt;li&gt;&lt;font face=&quot;Courier New&quot;&gt;\supset&lt;/font&gt;&lt;/li&gt;&lt;li&gt;&lt;font face=&quot;Courier New&quot;&gt;\in&lt;/font&gt;&lt;/li&gt;&lt;li&gt;&lt;font face=&quot;Courier New&quot;&gt;\notin&lt;/font&gt;&lt;/li&gt;&lt;li&gt;&lt;font face=&quot;Courier New&quot;&gt;\emptyset, \varnothing&lt;/font&gt;&lt;/li&gt;&lt;/ol&gt;&lt;/td&gt;&lt;td&gt;&lt;br&gt;&lt;br&gt;&lt;ol&gt;&lt;li&gt;\(\cup\)&lt;/li&gt;&lt;li&gt;\(\cap\)&lt;/li&gt;&lt;li&gt;\(\setminus\)&lt;/li&gt;&lt;li&gt;\(\subset\)&lt;/li&gt;&lt;li&gt;\(\subseteq\)&lt;/li&gt;&lt;li&gt;\(\subsetneq\)&lt;/li&gt;&lt;li&gt;\(\supset\)&lt;/li&gt;&lt;li&gt;\(\in\)&lt;/li&gt;&lt;li&gt;\(\notin\)&lt;/li&gt;&lt;li&gt;\(\emptyset\), \(\varnothing\)&lt;/li&gt;&lt;/ol&gt;&lt;/td&gt;&lt;/tr&gt;&lt;tr&gt;&lt;td&gt;&lt;h3&gt;specials&lt;/h3&gt;&lt;ol&gt;&lt;li&gt;&lt;font face=&quot;Courier New&quot;&gt;\infty&lt;/font&gt;&lt;/li&gt;&lt;li&gt;&lt;font face=&quot;Courier New&quot;&gt;\propto&lt;/font&gt;&lt;/li&gt;&lt;li&gt;&lt;font face=&quot;Courier New&quot;&gt;\nabla&lt;/font&gt;&lt;/li&gt;&lt;li&gt;&lt;span style=&quot;font-family: &amp;#34;courier new&amp;#34; ; font-size: 1em&quot;&gt;\approx&lt;/span&gt;&lt;br&gt;&lt;/li&gt;&lt;li&gt;&lt;font face=&quot;Courier New&quot;&gt;\sim&lt;/font&gt;&lt;/li&gt;&lt;li&gt;&lt;font face=&quot;Courier New&quot;&gt;\simeq&lt;/font&gt;&lt;/li&gt;&lt;li&gt;&lt;font face=&quot;Courier New&quot;&gt;\cong&lt;/font&gt;&lt;/li&gt;&lt;li&gt;&lt;font face=&quot;Courier New&quot;&gt;\equiv&lt;/font&gt;&lt;/li&gt;&lt;li&gt;&lt;font face=&quot;Courier New&quot;&gt;\prec&lt;/font&gt;&lt;/li&gt;&lt;li&gt;&lt;font face=&quot;Courier New&quot;&gt;\because, \therefore&lt;/font&gt;&lt;/li&gt;&lt;li&gt;&lt;font face=&quot;Courier New&quot;&gt;{n+1 \choose 2k}&lt;/font&gt;&lt;/li&gt;&lt;li&gt;&lt;font face=&quot;Courier New&quot;&gt;\binom{n+1}{2k}&lt;/font&gt;&lt;/li&gt;&lt;li&gt;&lt;font face=&quot;Courier New&quot;&gt;\land, \lor&lt;/font&gt;&lt;/li&gt;&lt;li&gt;&lt;font face=&quot;Courier New&quot;&gt;\angle&lt;/font&gt;&lt;/li&gt;&lt;li&gt;&lt;font face=&quot;Courier New&quot;&gt;\lnot&lt;/font&gt;&lt;/li&gt;&lt;li&gt;&lt;font face=&quot;Courier New&quot;&gt;\forall&lt;/font&gt;&lt;/li&gt;&lt;li&gt;&lt;font face=&quot;Courier New&quot;&gt;\exists&lt;/font&gt;&lt;/li&gt;&lt;li&gt;&lt;font face=&quot;Courier New&quot;&gt;\top&lt;/font&gt;&lt;/li&gt;&lt;li&gt;&lt;font face=&quot;Courier New&quot;&gt;\bot&lt;/font&gt;&lt;/li&gt;&lt;li&gt;&lt;font face=&quot;Courier New&quot;&gt;\vdash&lt;/font&gt;&lt;/li&gt;&lt;li&gt;&lt;font face=&quot;Courier New&quot;&gt;\vDash&lt;/font&gt;&lt;/li&gt;&lt;li&gt;&lt;font face=&quot;Courier New&quot;&gt;\star&lt;/font&gt;&lt;/li&gt;&lt;li&gt;&lt;font face=&quot;Courier New&quot;&gt;\ast&lt;/font&gt;&lt;/li&gt;&lt;li&gt;&lt;font face=&quot;Courier New&quot;&gt;\oplus, \bigoplus&lt;/font&gt;&lt;/li&gt;&lt;li&gt;&lt;font face=&quot;Courier New&quot;&gt;\otimes, \bigotimes&lt;/font&gt;&lt;/li&gt;&lt;li&gt;&lt;font face=&quot;Courier New&quot;&gt;\circ&lt;/font&gt;&lt;/li&gt;&lt;li&gt;&lt;font face=&quot;Courier New&quot;&gt;\bullet&lt;/font&gt;&lt;/li&gt;&lt;li&gt;&lt;font face=&quot;Courier New&quot;&gt;\hat x, \widehat {xy}&lt;/font&gt;&lt;/li&gt;&lt;li&gt;&lt;font face=&quot;Courier New&quot;&gt;\bar x&lt;/font&gt;&lt;/li&gt;&lt;li&gt;&lt;font face=&quot;Courier New&quot;&gt;\overline {xyz}, \underline {xyz}&lt;/font&gt;&lt;/li&gt;&lt;li&gt;&lt;font face=&quot;Courier New&quot;&gt;\vec {ab}&lt;/font&gt;&lt;/li&gt;&lt;li&gt;&lt;font face=&quot;Courier New&quot;&gt;\overrightarrow {abcd}&lt;/font&gt;&lt;/li&gt;&lt;li&gt;&lt;font face=&quot;Courier New&quot;&gt;\overbrace, \underbrace accept _ and ^&lt;/font&gt;&lt;/li&gt;&lt;li&gt;&lt;font face=&quot;Courier New&quot;&gt;\dot, \ddot, \dddot&lt;/font&gt;&lt;/li&gt;&lt;li&gt;&lt;font face=&quot;Courier New&quot;&gt;\stackrel{\text{def}}{=}&lt;/font&gt;&lt;/li&gt;&lt;/ol&gt;&lt;/td&gt;&lt;td&gt;&lt;br&gt;&lt;ol&gt;&lt;li&gt;\(\infty\)&lt;/li&gt;&lt;li&gt;\(\propto\)&lt;/li&gt;&lt;li&gt;\(\nabla\)&lt;/li&gt;&lt;li&gt;&lt;span style=&quot;font-size: 1em&quot;&gt;\(\approx\)&lt;/span&gt;&lt;br&gt;&lt;/li&gt;&lt;li&gt;\(\sim\)&lt;/li&gt;&lt;li&gt;\(\simeq\)&lt;/li&gt;&lt;li&gt;\(\cong\)&lt;/li&gt;&lt;li&gt;\(\equiv\)&lt;/li&gt;&lt;li&gt;\(\prec\)&lt;/li&gt;&lt;li&gt;\(\because\), \(\therefore\)&lt;/li&gt;&lt;li&gt;\({n+1 \choose 2k}\)&lt;/li&gt;&lt;li&gt;\(\binom{n+1}{2k}\)&lt;/li&gt;&lt;li&gt;\(\land\), \(\lor\)&lt;/li&gt;&lt;li&gt;\(\angle\)&lt;/li&gt;&lt;li&gt;\(\lnot\)&lt;/li&gt;&lt;li&gt;\(\forall\)&lt;/li&gt;&lt;li&gt;\(\exists\)&lt;/li&gt;&lt;li&gt;\(\top\)&lt;/li&gt;&lt;li&gt;\(\bot\)&lt;/li&gt;&lt;li&gt;\(\vdash\)&lt;/li&gt;&lt;li&gt;\(\vDash\)&lt;/li&gt;&lt;li&gt;\(\star\)&lt;/li&gt;&lt;li&gt;\(\ast\)&lt;/li&gt;&lt;li&gt;\(\oplus\), \(\bigoplus\)&lt;/li&gt;&lt;li&gt;\(\otimes\), \(\bigotimes\)&lt;/li&gt;&lt;li&gt;\(\circ\)&lt;/li&gt;&lt;li&gt;\(\bullet\)&lt;/li&gt;&lt;li&gt;\(\hat x\), \(\widehat {xy}\)&lt;/li&gt;&lt;li&gt;\(\bar x\)&lt;/li&gt;&lt;li&gt;\(\overline {xyz}\), \(\underline {xyz}\)&lt;/li&gt;&lt;li&gt;\(\vec {ab}\)&lt;/li&gt;&lt;li&gt;\(\overrightarrow {abcd}\)&lt;/li&gt;&lt;li&gt;\(\overbrace {x+y}\), \(\underbrace {x+y}\)&lt;/li&gt;&lt;li&gt;\(\dot a\), \(\ddot a\), \(\dddot a\)&lt;/li&gt;&lt;li&gt;\(\stackrel{\text{def}}=\)&lt;/li&gt;&lt;/ol&gt;&lt;/td&gt;&lt;/tr&gt;&lt;tr&gt;&lt;td&gt;&lt;h3&gt;functions&lt;/h3&gt;&lt;ol&gt;&lt;li&gt;&lt;font face=&quot;Courier New&quot;&gt;\sin x,&amp;nbsp;&lt;/font&gt;\cos x&lt;/li&gt;&lt;li&gt;&lt;font face=&quot;Courier New&quot;&gt;\tan x \cot x&lt;/font&gt;&lt;/li&gt;&lt;li&gt;&lt;font face=&quot;Courier New&quot;&gt;\sec x, \csc x&lt;/font&gt;&lt;/li&gt;&lt;li&gt;&lt;font face=&quot;Courier New&quot;&gt;\arcsin x, \arccos x,&amp;nbsp;&lt;/font&gt;\arctan x&lt;/li&gt;&lt;li&gt;&lt;font face=&quot;Courier New&quot;&gt;\mathrm{arccot \, x}, \mathrm{arcsec \, x}, \mathrm{arccsc \, x}&lt;/font&gt;&lt;/li&gt;&lt;li&gt;&lt;font face=&quot;Courier New&quot;&gt;\log x, \ln x&amp;nbsp;\exp x&lt;/font&gt;&lt;/li&gt;&lt;li&gt;&lt;font face=&quot;Courier New&quot;&gt;\sqrt {x^3},&amp;nbsp;\sqrt[4]{\frac xy},&lt;/font&gt;&lt;/li&gt;&lt;li&gt;&lt;font face=&quot;Courier New&quot;&gt;\max, \min, \sup, \inf&lt;/font&gt;&lt;/li&gt;&lt;li&gt;&lt;font face=&quot;Courier New&quot;&gt;\operatorname{foo}(x) - &lt;/font&gt;non-standard name&lt;/li&gt;&lt;/ol&gt;&lt;/td&gt;&lt;td&gt;&lt;br&gt;&lt;ol&gt;&lt;li&gt;\(\sin x, \cos x\)&lt;/li&gt;&lt;li&gt;\(\tan x, \cot x\)&lt;/li&gt;&lt;li&gt;\(\sec x, \csc x\)&lt;/li&gt;&lt;li&gt;\(\arcsin x, \arccos x, \arctan x \)&lt;/li&gt;&lt;li&gt;\(\mathrm{arccot \, x}, \mathrm{arcsec \, x}, \mathrm{arccsc \, x} \)&lt;/li&gt;&lt;li&gt;\(\log x, \ln x, \exp x\)&lt;/li&gt;&lt;li&gt;\(\sqrt {x^3}, \sqrt[4]{\frac xy}\)&lt;/li&gt;&lt;li&gt;\(\max, \min, \sup, \inf\)&lt;/li&gt;&lt;li&gt;\(\operatorname{foo}(x)\)&lt;/li&gt;&lt;/ol&gt;&lt;/td&gt;&lt;/tr&gt;&lt;tr&gt;&lt;td&gt;&lt;h3&gt;calcs&lt;/h3&gt;&lt;ol&gt;&lt;li&gt;&lt;font face=&quot;Courier New&quot;&gt;\partial, \mathrm{d}x&amp;nbsp;&lt;/font&gt;&lt;/li&gt;&lt;li&gt;&lt;font face=&quot;Courier New&quot;&gt;\sum&lt;/font&gt;&lt;/li&gt;&lt;li&gt;&lt;font face=&quot;Courier New&quot;&gt;\sum_{\substack{0&amp;lt;i&amp;lt;m \\&amp;nbsp; 0&amp;lt;j&amp;lt;n}}P(i,j)&lt;/font&gt;&lt;/li&gt;&lt;li&gt;&lt;font face=&quot;Courier New&quot;&gt;\int, \oint&lt;/font&gt;&lt;/li&gt;&lt;li&gt;&lt;font face=&quot;Courier New&quot;&gt;\iint&lt;/font&gt;&lt;/li&gt;&lt;li&gt;&lt;font face=&quot;Courier New&quot;&gt;\iiint, \iiiint,\idotsint&lt;/font&gt;&lt;/li&gt;&lt;li&gt;&lt;font face=&quot;Courier New&quot;&gt;\prod&lt;/font&gt;&lt;/li&gt;&lt;li&gt;&lt;font face=&quot;Courier New&quot;&gt;\lim, \lim\limits_{n \to \infty}&lt;/font&gt;&lt;/li&gt;&lt;li&gt;&lt;font face=&quot;Courier New&quot;&gt;\varliminf, \varlimsup&lt;/font&gt;&lt;/li&gt;&lt;/ol&gt;&lt;/td&gt;&lt;td&gt;&lt;br&gt;&lt;ol&gt;&lt;li&gt;\(\frac {\partial f} {\partial x}, \mathrm{d}x\)&lt;/li&gt;&lt;li&gt;\(\sum_{k=-\infty}^{\infty}X(k\Omega)\)&lt;/li&gt;&lt;li&gt;\(\sum\limits_{\substack{0&amp;lt;i&amp;lt;m \\ 0&amp;lt;j&amp;lt;n}}P(i,j)\)&lt;/li&gt;&lt;li&gt;\(\int_{-T/2}^{T/2}x(t)dt\), \(\oint\)&lt;/li&gt;&lt;li&gt;\(\iint g(x, y)dxdy\)&lt;/li&gt;&lt;li&gt;\(\iiint, \iiiint, \idotsint\)&lt;/li&gt;&lt;li&gt;\(\prod\limits_{i=1}^{n}i\)&lt;/li&gt;&lt;li&gt;\(\lim\limits_{n \to \infty}\)&lt;/li&gt;&lt;li&gt;\(\varliminf\), \(\varlimsup\)&lt;/li&gt;&lt;/ol&gt;&lt;/td&gt;&lt;/tr&gt;&lt;tr&gt;&lt;td&gt;&lt;h3&gt;arrows&lt;/h3&gt;&lt;ol&gt;&lt;li&gt;&lt;font face=&quot;Courier New&quot;&gt;\to&lt;/font&gt;&lt;/li&gt;&lt;li&gt;&lt;font face=&quot;Courier New&quot;&gt;\rightarrow&lt;/font&gt;&lt;/li&gt;&lt;li&gt;&lt;font face=&quot;Courier New&quot;&gt;\lelftarrow&lt;/font&gt;&lt;/li&gt;&lt;li&gt;&lt;font face=&quot;Courier New&quot;&gt;\Rightarrow&lt;/font&gt;&lt;/li&gt;&lt;li&gt;&lt;font face=&quot;Courier New&quot;&gt;\Leftarrow&lt;/font&gt;&lt;/li&gt;&lt;li&gt;&lt;font face=&quot;Courier New&quot;&gt;\leftrightarrow, \iff, \Leftrightarrow&lt;/font&gt;&lt;/li&gt;&lt;li&gt;&lt;font face=&quot;Courier New&quot;&gt;\mapsto&lt;/font&gt;&lt;/li&gt;&lt;li&gt;&lt;font face=&quot;Courier New&quot;&gt;\Uparrow&lt;/font&gt;&lt;/li&gt;&lt;li&gt;&lt;font face=&quot;Courier New&quot;&gt;\uparrow&lt;/font&gt;&lt;/li&gt;&lt;li&gt;&lt;font face=&quot;Courier New&quot;&gt;\Downarrow&lt;/font&gt;&lt;/li&gt;&lt;li&gt;&lt;font face=&quot;Courier New&quot;&gt;\downarrow&lt;/font&gt;&lt;/li&gt;&lt;/ol&gt;&lt;/td&gt;&lt;td&gt;&lt;br&gt;&lt;ol&gt;&lt;li&gt;\(\to\)&lt;/li&gt;&lt;li&gt;\(\rightarrow\)&lt;/li&gt;&lt;li&gt;\(\leftarrow\)&lt;/li&gt;&lt;li&gt;\(\Rightarrow\)&lt;/li&gt;&lt;li&gt;\(\Leftarrow\)&lt;/li&gt;&lt;li&gt;\(\leftrightarrow\), \(\iff\), \(\Leftrightarrow\)&lt;/li&gt;&lt;li&gt;\(\mapsto\)&lt;/li&gt;&lt;li&gt;\(\Uparrow\)&lt;/li&gt;&lt;li&gt;\(\uparrow\)&lt;/li&gt;&lt;li&gt;\(\Downarrow\)&lt;/li&gt;&lt;li&gt;\(\downarrow\)&lt;/li&gt;&lt;/ol&gt;&lt;/td&gt;&lt;/tr&gt;&lt;tr&gt;&lt;td&gt;&lt;h3&gt;table&lt;/h3&gt;&lt;ol&gt;&lt;li&gt;&lt;font face=&quot;Courier New&quot;&gt;\begin{array}&lt;/font&gt;&lt;/li&gt;&lt;li&gt;&lt;font face=&quot;Courier New&quot;&gt;{c(enter), l(eft), r(ight)}&lt;/font&gt;&lt;/li&gt;&lt;li&gt;&lt;font face=&quot;Courier New&quot;&gt;| for vertical line&lt;/font&gt;&lt;/li&gt;&lt;li&gt;&lt;font face=&quot;Courier New&quot;&gt;\hline, \hdashline for horizontal line&lt;/font&gt;&lt;/li&gt;&lt;li&gt;&lt;font face=&quot;Courier New&quot;&gt;&amp;amp; for element delimiter&lt;/font&gt;&lt;/li&gt;&lt;li&gt;&lt;font face=&quot;Courier New&quot;&gt;\\ for new line&lt;/font&gt;&lt;/li&gt;&lt;li&gt;&lt;font face=&quot;Courier New&quot;&gt;\end{array}&lt;/font&gt;&lt;/li&gt;&lt;/ol&gt;&lt;/td&gt;&lt;td&gt;\begin{array}{c|lrr}&lt;br&gt;id &amp;amp; name &amp;amp; s1 &amp;amp; s2\\&lt;br&gt;\hline&lt;br&gt;1 &amp;amp; a &amp;amp; 10 &amp;amp; 20\\&lt;br&gt;\hdashline&lt;br&gt;2 &amp;amp; b &amp;amp; 20 &amp;amp; 30&lt;br&gt;\end{array}&lt;br&gt;&lt;/td&gt;&lt;/tr&gt;&lt;tr&gt;&lt;td&gt;&lt;h3&gt;matrix: like table, {array} to {matrix}&lt;/h3&gt;&lt;ol&gt;&lt;li&gt;&lt;font face=&quot;Courier New&quot;&gt;{matrix}&lt;/font&gt;&lt;/li&gt;&lt;li&gt;&lt;font face=&quot;Courier New&quot;&gt;{pmatrix} -&amp;gt; ( )&lt;/font&gt;&lt;/li&gt;&lt;li&gt;&lt;font face=&quot;Courier New&quot;&gt;{bmatrix} -&amp;gt; [ ]&lt;/font&gt;&lt;/li&gt;&lt;li&gt;&lt;font face=&quot;Courier New&quot;&gt;{Bmatrix} -&amp;gt; { }&lt;/font&gt;&lt;/li&gt;&lt;li&gt;&lt;font face=&quot;Courier New&quot;&gt;{vmatrix} -&amp;gt; | |&lt;/font&gt;&lt;/li&gt;&lt;li&gt;&lt;font face=&quot;Courier New&quot;&gt;{Vmatrix} -&amp;gt; || ||&lt;/font&gt;&lt;/li&gt;&lt;li&gt;&lt;font face=&quot;Courier New&quot;&gt;\cdots, \ddots, \vdots, \ldots&lt;/font&gt;&lt;/li&gt;&lt;li&gt;&lt;font face=&quot;Courier New&quot;&gt;{smallmatrix}&lt;/font&gt;&lt;/li&gt;&lt;/ol&gt;&lt;/td&gt;&lt;td&gt;\begin{pmatrix}&lt;br&gt;1 &amp;amp; a_1 &amp;amp; a_1^2 &amp;amp; \cdots &amp;amp; a_1^n\\&lt;br&gt;1 &amp;amp; a_2 &amp;amp; a_2^2 &amp;amp; \cdots &amp;amp; a_2^n\\&lt;br&gt;\vdots &amp;amp; \vdots &amp;amp; \ddots &amp;amp; \vdots &amp;amp; \vdots\\&lt;br&gt;1 &amp;amp; a_n &amp;amp; a_n^2 &amp;amp; \cdots &amp;amp; a_n^n\\&lt;br&gt;\end{pmatrix}&lt;/td&gt;&lt;/tr&gt;&lt;tr&gt;&lt;td&gt;cases: like table, {array} to {cases}&lt;/td&gt;&lt;td&gt;\(&lt;br&gt;f(n)=\begin{cases}&lt;br&gt;\frac{n}{2} &amp;amp; \text{if $n$ is even} \\&lt;br&gt;3n+1 &amp;amp; \text{if $n$ is odd}&lt;br&gt;\end{cases}&lt;br&gt;\)&lt;/td&gt;&lt;/tr&gt;&lt;tr&gt;&lt;td&gt;&lt;h3&gt;multiline equtions&lt;/h3&gt;&lt;ol&gt;&lt;li&gt;&lt;font face=&quot;Courier New&quot;&gt;\begin{equation|&lt;/font&gt;&lt;/li&gt;&lt;li&gt;&lt;font face=&quot;Courier New&quot;&gt;\begin{split}&lt;/font&gt;&lt;/li&gt;&lt;li&gt;&lt;font face=&quot;Courier New&quot;&gt;\end{split}&lt;/font&gt;&lt;/li&gt;&lt;li&gt;&lt;font face=&quot;Courier New&quot;&gt;\end{equation}&lt;/font&gt;&lt;/li&gt;&lt;li&gt;&lt;font face=&quot;Courier New&quot;&gt;&amp;amp; align position&lt;/font&gt;&lt;/li&gt;&lt;/ol&gt;&lt;h3&gt;or use&lt;/h3&gt;&lt;div&gt;&lt;ol&gt;&lt;li&gt;&lt;font face=&quot;Courier New&quot;&gt;\begin{align}&lt;/font&gt;&lt;/li&gt;&lt;li&gt;&lt;font face=&quot;Courier New&quot;&gt;\end{align}&lt;/font&gt;&lt;/li&gt;&lt;/ol&gt;&lt;div&gt;&lt;font face=&quot;Courier New&quot;&gt;{align} prints eqution with line number, {align*} without&lt;/font&gt;&lt;/div&gt;&lt;/div&gt;&lt;div&gt;&lt;font face=&quot;Courier New&quot;&gt;number&lt;/font&gt;&lt;/div&gt;&lt;/td&gt;&lt;td&gt;\(\begin{equation}\begin{split}&lt;br&gt;H(Y|X)&amp;amp;=\sum_{x \in X}p(x)H(Y|X)\\&lt;br&gt;&amp;amp;=-\sum_{x \in X}p(x)\sum_{y \in Y}p(y|x) \log p(y|x)\\&lt;br&gt;&amp;amp;=-\sum_{x \in X}\sum_{y \in Y}p(y, x) \log p(y|x)&lt;br&gt;\end{split}\end{equation}\)&lt;/td&gt;&lt;/tr&gt;&lt;tr&gt;&lt;td&gt;&lt;h3&gt;tags and refs&lt;/h3&gt;&lt;ol&gt;&lt;li&gt;&lt;font face=&quot;Courier New&quot;&gt;\t`ag{name}&lt;/font&gt;&lt;/li&gt;&lt;li&gt;&lt;font face=&quot;Courier New&quot;&gt;\label{somelabel}, \eqref {somelabel}, \ref {somelabel}&lt;/font&gt;&lt;/li&gt;&lt;/ol&gt;&lt;/td&gt;&lt;td&gt;&lt;ol&gt;&lt;li&gt;\(x=y+a \sin x \label{test}\)&lt;/li&gt;&lt;li&gt;\(x-\sin x=y \eqref{test}\)&lt;/li&gt;&lt;/ol&gt;&lt;/td&gt;&lt;/tr&gt;&lt;tr&gt;&lt;td&gt;&lt;h3&gt;styles&lt;/h3&gt;&lt;ol&gt;&lt;li&gt;&lt;font face=&quot;Courier New&quot;&gt;\bbox[yellow]&lt;/font&gt;&lt;/li&gt;&lt;li&gt;&lt;font face=&quot;Courier New&quot;&gt;\bbox[yellow, 5px, border: 2px solid red]&lt;/font&gt;&lt;/li&gt;&lt;li&gt;&lt;font face=&quot;Courier New&quot;&gt;\color{red}x&lt;/font&gt;&lt;/li&gt;&lt;/ol&gt;&lt;/td&gt;&lt;td&gt;&lt;br&gt;&lt;ol&gt;&lt;li&gt;\(\bbox[yellow]{x+y}\)&lt;/li&gt;&lt;li&gt;\(\bbox[yellow, 5px, border: 2px solid red]{x+y}\)&lt;/li&gt;&lt;li&gt;\(\color{red}x\)&lt;/li&gt;&lt;/ol&gt;&lt;/td&gt;&lt;/tr&gt;&lt;/tbody&gt;&lt;/table&gt; " style="verticalAlign=top;align=left;overflow=fill;fontSize=12;fontFamily=Helvetica;html=1;rounded=0;labelBackgroundColor=none;fillColor=#ffffff;fontStyle=0;arcSize=50;" parent="1" vertex="1">
                    <mxGeometry x="10" y="8" width="810" height="3692" as="geometry"/>
                </mxCell>
            </root>
        </mxGraphModel>
    </diagram>
    <diagram id="I8X9bG_e0WLNlJAtUdyu" name="math-notation">
        &#xa;        
        <mxGraphModel dx="554" dy="480" grid="1" gridSize="10" guides="1" tooltips="1" connect="1" arrows="1" fold="1" page="1" pageScale="1" pageWidth="827" pageHeight="1169" math="1" shadow="0">
            &#xa;            
            <root>
                &#xa;                
                <mxCell id="QnXLEoQNynfyzMarZO_s-0"/>
                &#xa;                
                <mxCell id="QnXLEoQNynfyzMarZO_s-1" parent="QnXLEoQNynfyzMarZO_s-0"/>
                &#xa;                
                <mxCell id="QnXLEoQNynfyzMarZO_s-2" value="&lt;table cellpadding=&quot;4&quot; cellspacing=&quot;0&quot; border=&quot;1&quot; style=&quot;font-size: 1em ; width: 100% ; height: 100%&quot;&gt;&lt;tbody&gt;&lt;tr&gt;&lt;th&gt;Type&lt;/th&gt;&lt;th&gt;Contents&lt;/th&gt;&lt;/tr&gt;&lt;tr&gt;&lt;td&gt;Analysis&lt;/td&gt;&lt;td&gt;&lt;ol&gt;&lt;li&gt;\(g(x) = O(f(x))\) denotes \(g(x)/f(x)\) is bounded or finite as \(x \to \infty\)&lt;/li&gt;&lt;li&gt;\(g(x) = \omicron(f(x))\) denotes \(g(x)/f(x)\) is 0 as \(x \to \infty\)&lt;/li&gt;&lt;li&gt;\(\lim\limits_{x \to \infty} f(x), \lim\limits_{x \to +\infty} f(x), \lim\limits_{x \to -\infty} f(x), \lim\limits_{x \to a} f(x), \lim\limits_{x \to a^-} f(x), \lim\limits_{x \to a^+} f(x)\)&lt;/li&gt;&lt;li&gt;\(\sup\limits_{x \in \mathbb{R}} f(x), \inf\limits_{x \in \mathbb{R}} f(x), \max\limits_{x \in \mathbb{R}} f(x), \min\limits_{x \in \mathbb{R}} f(x)\)&lt;/li&gt;&lt;li&gt;\(f'(x), f''(x), f^k(x)\) first, second, k-th order derivative&lt;/li&gt;&lt;li&gt;\(\frac {\partial f} {\partial x}, \frac {\partial^2 f} {\partial x}, \frac {\partial^k f} {\partial x}\) partial first, second, k-th order derivative&lt;/li&gt;&lt;li&gt;\(\int_{a}^{b}f(x)\mathrm{d}x, \int_{c}^{d}\int_{a}^{b}f(x, y)\mathrm{d}x\mathrm{d}y, \iint, \iiint, \idotsint\)&lt;/li&gt;&lt;/ol&gt;&lt;div&gt;&lt;/div&gt;&lt;div&gt;&lt;/div&gt;&lt;/td&gt;&lt;/tr&gt;&lt;tr&gt;&lt;td&gt;Algebra&lt;/td&gt;&lt;td&gt;&lt;ol style=&quot;font-size: 14px&quot;&gt;&lt;li&gt;Scalar values lowercase and non-boldface: \(a,b,c\)&lt;/li&gt;&lt;li&gt;Vectors lowercase and bold: \(\mathbf{a, b, c}\), and all vectors assumed to be column vectors&amp;nbsp;&lt;/li&gt;&lt;li&gt;\(T\) denotes the transpose of a matrix, so \(\mathbf{x}^T\) will be a row vector&lt;/li&gt;&lt;li&gt;Matrics uppercase and bold: \(\mathbf{A, B, C}\)&lt;/li&gt;&lt;li&gt;\(\mathbf{I}_M\) or \(\mathbf{I}\) denotes an identity matrix with \(M \times M\) dimension&lt;/li&gt;&lt;li&gt;Vctor spaces uppercase and blackboard bold: \(\mathbb{R, S, T, R^n, R^{m \times n}}\)&lt;/li&gt;&lt;/ol&gt;&lt;/td&gt;&lt;/tr&gt;&lt;tr&gt;&lt;td&gt;stats&lt;/td&gt;&lt;td&gt;&lt;ol style=&quot;font-size: 14px&quot;&gt;&lt;li&gt;Random variables uppercase and non-boldface: \(X, Y, Z\)&lt;/li&gt;&lt;li&gt;Random samples lowercase and non-bold: \(y_1, y_2, \cdots, y_n\)&lt;/li&gt;&lt;li&gt;Parameters lowercase Greeks: \(\alpha, \beta, \gamma, \cdots\)&lt;/li&gt;&lt;li&gt;Random error: \(e, \epsilon\)&lt;/li&gt;&lt;li&gt;Estimated parameters hat lowercase Greeks: \(\hat{\alpha}, \hat{\beta}, \hat{\gamma}, \cdots\)&lt;/li&gt;&lt;li&gt;Random variables vector: \(\left(\substack{Y_1 \\ \vdots \\ Y_n}\right)\)&lt;/li&gt;&lt;li&gt;Samples or observations vector: \(\left(\substack{y_1 \\ \vdots \\ y_n}\right)\)&lt;/li&gt;&lt;li&gt;\(Y\)'s probability distribution: \(f(y; \theta)\)&lt;/li&gt;&lt;li&gt;\(Y\)'s expected value: \(\mu = E(Y)\)&lt;/li&gt;&lt;li&gt;\(Y\)'s variance: \(\sigma^2 = D(Y) = \operatorname{Var}(Y)\)&lt;br&gt;&lt;/li&gt;&lt;li&gt;\(\left(X, Y\right)\)'s covariance: \(\rho_{xy} = \operatorname{Cov}(X, Y) = E((X-E(X)(Y-E(Y))\)&lt;/li&gt;&lt;li&gt;\(\left(X, Y\right)\)'s correlation coefficient: \(\rho_{XY} = \frac {\operatorname{Cov}(X, Y)} {\sqrt{D(X)} \sqrt{D(Y)}} \)&lt;/li&gt;&lt;/ol&gt;&lt;/td&gt;&lt;/tr&gt;&lt;/tbody&gt;&lt;/table&gt; " style="verticalAlign=top;align=left;overflow=fill;fontSize=12;fontFamily=Helvetica;html=1" vertex="1" parent="QnXLEoQNynfyzMarZO_s-1">
                    &#xa;                    
                    <mxGeometry x="10" y="10" width="800" height="820" as="geometry"/>
                    &#xa;                
                </mxCell>
                &#xa;            
            </root>
            &#xa;        
        </mxGraphModel>
        &#xa;    
    </diagram>
</mxfile>